<?xml version="1.0" standalone="no"?>
<!DOCTYPE svg PUBLIC "-//W3C//DTD SVG 20010904//EN"
 "http://www.w3.org/TR/2001/REC-SVG-20010904/DTD/svg10.dtd">
<svg version="1.0" xmlns="http://www.w3.org/2000/svg"
 width="260.000000pt" height="260.000000pt" viewBox="0 0 260.000000 260.000000"
 preserveAspectRatio="xMidYMid meet">
<metadata>
Created by potrace 1.11, written by Peter Selinger 2001-2013
</metadata>
<g transform="translate(0.000000,260.000000) scale(0.100000,-0.100000)"
fill="#000000" stroke="none">
<path d="M1210 2392 c-32 -3 -102 -14 -156 -26 -184 -39 -377 -148 -525 -295
-174 -175 -279 -387 -316 -636 -8 -57 -10 -255 -2 -255 4 0 6 -8 6 -17 -3 -61
50 -236 103 -345 109 -220 297 -404 520 -509 41 -20 95 -41 120 -48 25 -8 52
-16 60 -19 62 -22 202 -38 306 -36 340 7 648 169 857 449 107 143 167 288 204
490 9 50 9 258 0 305 -4 19 -9 49 -12 65 -45 240 -208 502 -406 652 -125 93
-299 175 -423 199 -12 2 -43 8 -71 14 -52 10 -205 17 -265 12z m295 -57 c204
-43 379 -134 523 -273 67 -65 172 -194 172 -212 0 -5 6 -15 13 -22 20 -21 75
-142 96 -215 35 -117 45 -184 45 -313 0 -94 -9 -194 -19 -209 -1 -3 -6 -24 -9
-46 -11 -68 -85 -236 -140 -319 -129 -193 -292 -326 -503 -409 -94 -37 -103
-40 -233 -61 -89 -15 -265 -12 -335 4 -27 6 -60 14 -73 16 -61 12 -233 85
-297 126 -352 228 -535 609 -492 1026 4 35 8 66 11 70 2 4 7 25 10 47 6 38 17
75 37 120 4 11 20 47 34 79 66 154 217 329 371 432 135 90 308 155 454 171 30
3 56 6 58 8 9 8 211 -7 277 -20z"/>
<path d="M1417 2038 c-46 -10 -112 -45 -187 -100 -59 -44 -245 -228 -296 -293
-27 -35 -33 -38 -48 -26 -33 28 -12 102 48 169 37 41 43 56 26 67 -15 9 -97
-72 -120 -119 -28 -59 -27 -120 3 -150 l24 -24 -52 -78 c-164 -250 -211 -417
-135 -486 44 -40 118 -41 212 -3 58 23 174 102 233 157 19 18 31 23 34 15 2
-6 9 -15 15 -19 7 -5 -3 -33 -31 -85 -23 -43 -45 -92 -48 -108 -22 -103 -12
-139 45 -167 19 -10 51 -18 70 -18 41 0 152 30 198 54 18 9 32 14 32 11 0 -2
-23 -16 -50 -30 -182 -92 -293 -208 -250 -260 18 -21 69 -18 115 6 50 27 145
119 210 203 48 61 55 67 168 117 65 28 121 58 124 66 12 30 -20 31 -81 3 -34
-15 -73 -31 -86 -35 -23 -7 -24 -7 -9 16 16 24 15 49 -2 49 -4 0 -40 -21 -79
-46 -128 -83 -296 -126 -346 -90 -32 24 -24 99 21 191 21 42 43 79 49 81 6 2
52 6 101 8 131 5 207 34 350 133 160 110 260 280 200 339 -20 20 -92 26 -144
12 -59 -16 -151 -67 -228 -125 -73 -56 -205 -187 -257 -256 -20 -26 -32 -34
-37 -26 -10 17 1 41 30 63 102 81 166 161 154 192 -14 36 -65 23 -130 -33 -39
-34 -103 -129 -103 -152 0 -20 -45 -64 -145 -141 -186 -142 -334 -142 -320 0
6 67 71 206 155 335 29 44 54 82 56 84 2 3 25 6 52 7 127 7 215 36 336 110
143 86 282 256 269 328 -10 53 -63 73 -146 54z m89 -64 c13 -53 -83 -174 -203
-255 -75 -51 -197 -108 -243 -115 -63 -9 -100 -11 -100 -4 0 28 235 261 326
322 114 78 208 100 220 52z m333 -433 c26 -47 -90 -193 -220 -277 -123 -80
-239 -115 -347 -105 -22 2 117 158 215 243 141 122 323 194 352 139z m-539
-171 c-23 -22 -44 -40 -48 -40 -3 0 12 18 33 40 21 22 43 40 48 40 5 0 -10
-18 -33 -40z m190 -514 c0 -2 -7 -7 -16 -10 -8 -3 -12 -2 -9 4 6 10 25 14 25
6z m-91 -113 c-70 -90 -187 -182 -211 -167 -12 8 11 45 44 74 34 29 159 109
172 109 5 1 2 -7 -5 -16z"/>
</g>
</svg>
